<svg xmlns="http://www.w3.org/2000/svg" viewBox="0 0 36 36"><defs><style>.cls-1{fill:#ccc;}</style></defs><path class="cls-1" d="M15.48 14.84a4 4 0 0 0-4.19 4.07 4.09 4.09 0 0 0 4.19 4.11A4.27 4.27 0 0 0 19.92 19a4.24 4.24 0 0 0-4.44-4.16zM29.32 14.84a4.46 4.46 0 0 0-4.42 4.68 4.53 4.53 0 0 0 4.47 4.7 4.46 4.46 0 0 0 4.44-4.65 4.57 4.57 0 0 0-4.49-4.73z"/><path class="cls-1" d="M29.32 25.88a6.19 6.19 0 0 1-6.27-6.27 6.33 6.33 0 0 1 11.5-3.62 16.61 16.61 0 1 0-1.15 8.47 6.3 6.3 0 0 1-4.08 1.42zm-7.67-2.38a5.82 5.82 0 0 1-1.54 4.28 6.36 6.36 0 0 1-4.61 1.61A9.48 9.48 0 0 1 10 27.7l.82-1.4a7.72 7.72 0 0 0 4.65 1.54c2.67 0 4.4-1.47 4.4-4.3v-1.43a5.73 5.73 0 0 1-4.75 2.55A5.59 5.59 0 0 1 9.45 19a5.72 5.72 0 0 1 10.4-3.27v-2.22h1.8v10z"/></svg>