<svg id="Layer_1" data-name="Layer 1" xmlns="http://www.w3.org/2000/svg" viewBox="0 0 20 25"><defs><style>.cls-1{fill:#04b3dc;}</style></defs><title>icon_report-place</title><path class="cls-1" d="M10,25L9.34,23.78c-0.31-.56-0.8-1.4-1.4-2.42C4.67,15.78,1.47,10.13,1.47,7.85,1.47,2.08,6.07,0,10,0s8.53,2,8.53,7.82c0,2.28-3.21,7.93-6.49,13.53-0.59,1-1.08,1.84-1.39,2.4ZM10,1.53C8.35,1.53,3,2,3,7.85c0,2.06,4.08,9,6.27,12.75L10,21.91l0.75-1.29C12.95,16.88,17,9.92,17,7.85,17,2,11.65,1.53,10,1.53m0,9.55a3.22,3.22,0,1,1,3.22-3.22A3.23,3.23,0,0,1,10,11.08m0-5a1.73,1.73,0,1,0,1.73,1.73A1.73,1.73,0,0,0,10,6.12"/></svg>