<svg class="icon icon__delete-color" xmlns="http://www.w3.org/2000/svg" viewBox="0 0 20 22"><path d="M17.65 2.76h-4V1.49A1.28 1.28 0 0 0 12.34.21H7.66a1.28 1.28 0 0 0-1.27 1.28v1.27h-4v.85h1l1.49 16.95a1.39 1.39 0 0 0 1.35 1.23h7.65a1.39 1.39 0 0 0 1.35-1.23l1.58-16.95h.84v-.85zM7.24 1.49a.43.43 0 0 1 .43-.43h4.68a.43.43 0 0 1 .43.43v1.27H7.24V1.49zm7.15 19a.53.53 0 0 1-.51.46H6.23a.53.53 0 0 1-.51-.46L4.15 3.61H16z"/><path class="cls-1" d="M9.68 5.42h.85v13.61h-.85zM6.706 5.44l.85-.025.425 13.603-.85.027zM12.222 18.994l.408-13.61.85.025-.408 13.61z"/></svg>