<svg xmlns="http://www.w3.org/2000/svg" viewBox="0 0 22 22"><defs><style>.cls-1{fill:#f1831f;}</style></defs><title>icon_opportunity-solid</title><path class="cls-1" d="M20.36 7.31a2.72 2.72 0 0 0-.8-3.09 2.59 2.59 0 0 0-.28-1.64A3.71 3.71 0 0 0 16.63.93a9.73 9.73 0 0 0-2-.18q-.67 0-1.44.06a43.28 43.28 0 0 0-5.73.31l-1 .15A1.74 1.74 0 0 0 5.42.92H2.79A1.75 1.75 0 0 0 1 2.67v7a1.75 1.75 0 0 0 1.75 1.75h2.67a1.74 1.74 0 0 0 .87-.23 4.52 4.52 0 0 0 .85 1.29l.06.05c1.36 1 3 4.8 3.52 6.32a2.94 2.94 0 0 0 .35 2 1 1 0 0 0 .8.37 2.69 2.69 0 0 0 2.16-1c.67-.92.7-2.32.1-4.14a7 7 0 0 1-.53-2.56l.72.15c.41.09 4 .85 5.53-.55a2.26 2.26 0 0 0 .53-2.63A2.63 2.63 0 0 0 21 9a2.53 2.53 0 0 0-.64-1.69z"/></svg>