<svg id="Layer_1" data-name="Layer 1" xmlns="http://www.w3.org/2000/svg" viewBox="0 0 26 20"><defs><style>.cls-1{fill:#04b3dc;}</style></defs><title>icon_report-person</title><path class="cls-1" d="M25 19.16h-4.82v-1.49h3.37a14.57 14.57 0 0 0-.18-3.09c-.07-.1-.14-.22-.2-.34a1.89 1.89 0 0 0-1.25-1 16.09 16.09 0 0 1-1.82-.83l-.36-.22v-2.12l.26-.21a2.21 2.21 0 0 0 .4-1.16l.11-.87.13-1a9.57 9.57 0 0 0 .11-1.3 1.92 1.92 0 0 0-2-1.53 1.92 1.92 0 0 0-2 1.53 7.27 7.27 0 0 0 .11 1.29l.13 1 .01.87a2.09 2.09 0 0 0 .43 1.19l-.9 1.12a2.83 2.83 0 0 1-.89-1.67h-.05A1.87 1.87 0 0 1 14.87 8a2.26 2.26 0 0 1 .39-1.48 5.7 5.7 0 0 1-.05-1.13 3.42 3.42 0 0 1 3.53-2.88 3.42 3.42 0 0 1 3.53 2.88 6 6 0 0 1-.05 1.13A2.29 2.29 0 0 1 22.59 8a1.87 1.87 0 0 1-.73 1.3 3.45 3.45 0 0 1-.59 1.36v.59c.25.11.65.29 1.27.55a3.28 3.28 0 0 1 2 1.63l.17.29c.41.64.44 2.88.38 4.64z"/><path class="cls-1" d="M17.94 19.16H1v-.72c-.06-1.95 0-4.42.41-5.12s1.59-1.21 2.9-1.71l1-.4c.69-.31 1.19-.51 1.46-.64v-.74a3.74 3.74 0 0 1-.67-1.54 1.94 1.94 0 0 1-.85-1.43 2.45 2.45 0 0 1 .43-1.61A6.79 6.79 0 0 1 5.63 4 3.72 3.72 0 0 1 9.47.84 3.72 3.72 0 0 1 13.32 4a6.83 6.83 0 0 1-.06 1.28 2.45 2.45 0 0 1 .43 1.62 2 2 0 0 1-.85 1.43 3.77 3.77 0 0 1-.67 1.54v.73c.27.13.73.34 1.46.64l1 .4c1.3.5 2.42.94 2.91 1.71s.46 3.14.46 5.08zm-15.48-1.5h14a16.2 16.2 0 0 0-.21-3.56A6.53 6.53 0 0 0 14.1 13l-1-.42a17.92 17.92 0 0 1-2-.92l-.35-.22V9.17L11 9a2.47 2.47 0 0 0 .48-1.35l.11-.86.58.17a.51.51 0 0 0 .06-.15 1.76 1.76 0 0 0 0-.28l-.7.14.22-1a10.57 10.57 0 0 0 .12-1.46 2.22 2.22 0 0 0-2.4-1.87 2.23 2.23 0 0 0-2.35 1.77 8.9 8.9 0 0 0 .12 1.46l.14 1-.62-.08a1.75 1.75 0 0 0 0 .28.56.56 0 0 0 .07.16l.71-.2v.88A2.35 2.35 0 0 0 8 9l.26.2v2.25l-.35.22a18 18 0 0 1-2 .92l-1 .41a6.25 6.25 0 0 0-2.2 1.13 16.89 16.89 0 0 0-.19 3.54"/></svg>