<svg class="icon icon__opportunity-outline" xmlns="http://www.w3.org/2000/svg" viewBox="0 0 22 22"><path d="M20.36 7.31a2.72 2.72 0 0 0-.8-3.09 2.59 2.59 0 0 0-.28-1.64A3.71 3.71 0 0 0 16.63.93a9.73 9.73 0 0 0-2-.18q-.67 0-1.44.06a43.28 43.28 0 0 0-5.73.31l-1 .15A1.74 1.74 0 0 0 5.42.92H2.79A1.75 1.75 0 0 0 1 2.67v7a1.75 1.75 0 0 0 1.75 1.75h2.67a1.74 1.74 0 0 0 .87-.23 4.52 4.52 0 0 0 .85 1.29l.06.05c1.36 1 3 4.8 3.52 6.32a2.94 2.94 0 0 0 .35 2 1 1 0 0 0 .8.37 2.69 2.69 0 0 0 2.16-1c.67-.92.7-2.32.1-4.14a7 7 0 0 1-.53-2.56l.72.15c.41.09 4 .85 5.53-.55a2.26 2.26 0 0 0 .53-2.63A2.63 2.63 0 0 0 21 9a2.53 2.53 0 0 0-.64-1.69zM5.42 2a.67.67 0 0 1 .67.67v7a.67.67 0 0 1 0 .12A.54.54 0 0 0 6 10a.67.67 0 0 1-.56.3H2.79a.67.67 0 0 1-.67-.67v-7A.67.67 0 0 1 2.79 2h2.63zm14.45 7a1.66 1.66 0 0 1-.49 1 .55.55 0 0 0-.09.69 1.27 1.27 0 0 1-.15 1.62c-.93.85-3.63.49-4.54.29h-.06l-.75-.15a.9.9 0 0 0-.9.16c-.56.5-.49 1.63.22 3.81.48 1.45.49 2.54 0 3.16a1.6 1.6 0 0 1-1.27.6 2.55 2.55 0 0 1-.07-1.29.81.81 0 0 0 0-.27c-.08-.22-2-5.38-3.89-6.9a3.64 3.64 0 0 1-.81-1.5 1.75 1.75 0 0 0 .08-.53v-7a1.75 1.75 0 0 0 0-.4l.46-.09a42.94 42.94 0 0 1 5.59-.3h.05a11.46 11.46 0 0 1 3.15.1 2.73 2.73 0 0 1 1.92 1.1 1.52 1.52 0 0 1 .13 1.16.54.54 0 0 0 .19.61 1.68 1.68 0 0 1 .62 2.26.54.54 0 0 0 .07.65A1.66 1.66 0 0 1 19.87 9z"/></svg>