<svg class="icon icon__accolade-outline" xmlns="http://www.w3.org/2000/svg" viewBox="0 0 22 22"><path d="M21 13a2.63 2.63 0 0 0-.56-1.47 2.26 2.26 0 0 0-.53-2.63c-1.52-1.39-5.13-.64-5.53-.55l-.78.15a7 7 0 0 1 .53-2.56c.6-1.82.56-3.21-.1-4.14a2.69 2.69 0 0 0-2.16-1 1 1 0 0 0-.8.37 2.94 2.94 0 0 0-.35 2c-.56 1.5-2.16 5.26-3.52 6.3l-.06.06a4.52 4.52 0 0 0-.85 1.29 1.74 1.74 0 0 0-.87-.23H2.79A1.75 1.75 0 0 0 1 12.34v7a1.75 1.75 0 0 0 1.75 1.75h2.67a1.74 1.74 0 0 0 1.06-.36l1 .15a43.28 43.28 0 0 0 5.73.31q.77.06 1.44.06a9.73 9.73 0 0 0 2-.18 3.71 3.71 0 0 0 2.65-1.64 2.59 2.59 0 0 0 .28-1.64 2.72 2.72 0 0 0 .8-3.09A2.53 2.53 0 0 0 21 13zM2.79 20a.67.67 0 0 1-.67-.67v-7a.67.67 0 0 1 .67-.67h2.63A.67.67 0 0 1 6 12a.54.54 0 0 0 .1.25.67.67 0 0 1 0 .12v7a.67.67 0 0 1-.67.67H2.79zm16.53-5.77a.54.54 0 0 0-.07.65 1.68 1.68 0 0 1-.62 2.26.54.54 0 0 0-.19.61 1.52 1.52 0 0 1-.13 1.16A2.73 2.73 0 0 1 16.4 20a11.46 11.46 0 0 1-3.15.1h-.05a42.94 42.94 0 0 1-5.59-.3l-.48-.07a1.75 1.75 0 0 0 0-.4v-7a1.75 1.75 0 0 0-.08-.53 3.64 3.64 0 0 1 .81-1.5c1.92-1.52 3.81-6.68 3.89-6.9a.81.81 0 0 0 0-.27 2.55 2.55 0 0 1 .07-1.29 1.6 1.6 0 0 1 1.27.6c.45.62.43 1.71 0 3.16-.72 2.17-.78 3.31-.22 3.81a.9.9 0 0 0 .9.16l.75-.15h.05c.91-.2 3.61-.56 4.54.29a1.27 1.27 0 0 1 .15 1.62.55.55 0 0 0 .09.69 1.66 1.66 0 0 1 .49 1 1.66 1.66 0 0 1-.52 1.21z"/></svg>