<svg xmlns="http://www.w3.org/2000/svg" viewBox="0 0 22 22"><defs><style>.cls-1{fill:#7eb347;}</style></defs><title>icon_accolade-solid</title><path class="cls-1" d="M21 13a2.63 2.63 0 0 0-.56-1.47 2.26 2.26 0 0 0-.53-2.63c-1.52-1.39-5.13-.64-5.53-.55l-.78.15a7 7 0 0 1 .53-2.56c.6-1.82.56-3.21-.1-4.14a2.69 2.69 0 0 0-2.16-1 1 1 0 0 0-.8.37 2.94 2.94 0 0 0-.35 2c-.56 1.5-2.16 5.26-3.52 6.3l-.06.06a4.52 4.52 0 0 0-.85 1.29 1.74 1.74 0 0 0-.87-.23H2.79A1.75 1.75 0 0 0 1 12.34v7a1.75 1.75 0 0 0 1.75 1.75h2.67a1.74 1.74 0 0 0 1.06-.36l1 .15a43.28 43.28 0 0 0 5.73.31q.77.06 1.44.06a9.73 9.73 0 0 0 2-.18 3.71 3.71 0 0 0 2.65-1.64 2.59 2.59 0 0 0 .28-1.64 2.72 2.72 0 0 0 .8-3.09A2.53 2.53 0 0 0 21 13z"/></svg>