<svg xmlns="http://www.w3.org/2000/svg" viewBox="0 0 120 35"><defs><style>.cls-1{fill:#fff;}</style></defs><title>logo_white</title><path class="cls-1" d="M36.41 22.62l1.15-1.36a7.79 7.79 0 0 0 5.61 2.31c2.2 0 3.65-1.17 3.65-2.78 0-1.52-.82-2.38-4.26-3.11-3.76-.82-5.49-2-5.49-4.72 0-2.57 2.27-4.47 5.38-4.47a8.54 8.54 0 0 1 5.75 2l-1.08 1.43a7.19 7.19 0 0 0-4.72-1.78c-2.13 0-3.48 1.17-3.48 2.64 0 1.54.84 2.41 4.44 3.18s5.33 2.13 5.33 4.63c0 2.81-2.34 4.63-5.59 4.63a9.58 9.58 0 0 1-6.69-2.6zM50 7.93h1.8V15a4.58 4.58 0 0 1 4.2-2.34c2.92 0 4.63 2 4.63 4.84V25H58.8v-7.06c0-2.24-1.22-3.65-3.34-3.65a3.56 3.56 0 0 0-3.62 3.79V25H50V7.93zM61.95 21.49c0-2.55 2.1-3.9 5.17-3.9a12.84 12.84 0 0 1 3.72.51v-.46c0-2.17-1.33-3.3-3.6-3.3a8.42 8.42 0 0 0-3.67.89L63 13.75a10 10 0 0 1 4.4-1 5.3 5.3 0 0 1 3.9 1.33 4.77 4.77 0 0 1 1.24 3.53V25h-1.71v-1.82a5.3 5.3 0 0 1-4.37 2.08c-2.24 0-4.51-1.26-4.51-3.77zm8.91-.94v-1.16a12.6 12.6 0 0 0-3.55-.51c-2.27 0-3.53 1-3.53 2.5 0 1.52 1.4 2.41 3 2.41 2.22.04 4.08-1.31 4.08-3.23zM74.19 19A5.93 5.93 0 0 1 80 12.66a5.45 5.45 0 0 1 4.63 2.57v-7.3h1.8V25h-1.8v-2.43A5.43 5.43 0 0 1 80 25.26 5.9 5.9 0 0 1 74.19 19zm10.47 0a4.49 4.49 0 0 0-4.37-4.65C78 14.27 76 16 76 18.92a4.37 4.37 0 0 0 4.26 4.68 4.51 4.51 0 0 0 4.4-4.6zM88.11 19a6.3 6.3 0 0 1 12.6 0 6.28 6.28 0 0 1-6.34 6.31A6.19 6.19 0 0 1 88.11 19zm10.75 0a4.57 4.57 0 0 0-4.49-4.72A4.46 4.46 0 0 0 90 18.92a4.53 4.53 0 0 0 4.47 4.7 4.46 4.46 0 0 0 4.4-4.62zM100.86 12.91h1.92l3.18 9.7 3.25-9.75h1.5l3.29 9.76 3.18-9.7H119l-4.26 12.18h-1.57L110 15.55l-3.27 9.54h-1.59zM15 14.34a4 4 0 0 0-4.19 4.07A4.09 4.09 0 0 0 15 22.57a4.27 4.27 0 0 0 4.44-4.09A4.24 4.24 0 0 0 15 14.34zM28.85 14.34A4.46 4.46 0 0 0 24.44 19a4.53 4.53 0 0 0 4.47 4.7 4.46 4.46 0 0 0 4.44-4.65 4.57 4.57 0 0 0-4.5-4.71z"/><path class="cls-1" d="M28.85 25.38a6.19 6.19 0 0 1-6.27-6.27 6.33 6.33 0 0 1 11.5-3.62 16.61 16.61 0 1 0-1.15 8.47 6.3 6.3 0 0 1-4.08 1.42zM21.19 23a5.82 5.82 0 0 1-1.54 4.28 6.36 6.36 0 0 1-4.65 1.6 9.48 9.48 0 0 1-5.46-1.68l.82-1.4A7.72 7.72 0 0 0 15 27.34c2.67 0 4.4-1.47 4.4-4.3v-1.43a5.73 5.73 0 0 1-4.75 2.55A5.59 5.59 0 0 1 9 18.5a5.72 5.72 0 0 1 10.4-3.27V13h1.8v10z"/></svg>